<svg width="36" height="36" viewBox="0 0 36 36" fill="none" xmlns="http://www.w3.org/2000/svg">
<path d="M35.4102 1.07275H22.0508V16.8577H35.4102V1.07275Z" fill="#FEDB41"/>
<path d="M13.8465 27.2773H16.5954C17.0955 27.2773 17.5907 27.3759 18.0527 27.5673C18.5147 27.7587 18.9345 28.0392 19.2881 28.3929C19.6417 28.7465 19.9221 29.1664 20.1135 29.6284C20.3048 30.0905 20.4032 30.5857 20.4031 31.0858V34.4525H10.7891V29.1805L13.8465 27.2773Z" fill="#00EFD1"/>
<path d="M19.7633 13.9746C20.1411 14.4528 20.3345 15.0509 20.3081 15.6598C20.2817 16.2687 20.0374 16.8478 19.6196 17.2915C19.2019 17.7353 18.6386 18.0141 18.0324 18.0772C17.4262 18.1403 16.8176 17.9834 16.3174 17.6351V16.7599C16.3174 16.687 16.316 16.6141 16.3125 16.5419H16.3132L19.7633 13.9746Z" fill="#4B5D63"/>
<path d="M19.7694 13.9746L16.3193 16.5419H16.3186C16.2876 15.695 16.0623 14.8665 15.6602 14.1205C16.4694 12.995 18.0879 12.6717 19.2281 13.4662C19.4326 13.6082 19.615 13.7795 19.7694 13.9746Z" fill="#4B5D63"/>
<path d="M13.8409 25.2783C12.9697 25.8856 11.9391 26.2233 10.8774 26.2493C9.81575 26.2754 8.76985 25.9887 7.86986 25.4249C7.04538 24.9097 6.36505 24.1938 5.89252 23.3442C5.41999 22.4945 5.1707 21.5389 5.16797 20.5667V17.815C5.50106 17.8999 11.4132 19.3479 13.9552 14.9561C13.9552 14.9561 14.4286 16.8494 16.3198 17.8031V20.5667C16.3167 22.0609 15.7308 23.4949 14.6866 24.5638C14.4287 24.829 14.1455 25.0683 13.8409 25.2783Z" fill="#F7CAA5"/>
<path d="M15.6565 14.121C16.0586 14.867 16.2839 15.6955 16.3149 16.5424C16.3184 16.6146 16.3198 16.6875 16.3198 16.7605V17.8032C14.4286 16.8495 13.9552 14.9562 13.9552 14.9562C11.4132 19.3481 5.50106 17.9 5.16797 17.8151V16.7605C5.16748 16.1427 5.26961 15.5292 5.47021 14.945C5.56558 14.973 10.3123 16.3622 13.0647 11.7045L13.0703 11.6919C14.173 12.1996 15.0807 13.0522 15.6565 14.121Z" fill="#4B5D63"/>
<path d="M13.8422 27.2278V27.2769L10.7848 29.18L7.87109 27.2769V25.4249C8.77108 25.9887 9.81699 26.2754 10.8787 26.2493C11.9403 26.2233 12.9709 25.8856 13.8422 25.2783V27.2278Z" fill="#EDB288"/>
<path d="M13.0688 11.6916L13.0632 11.7042C10.3108 16.3619 5.56412 14.9727 5.46875 14.9446C5.72281 14.2087 6.12804 13.534 6.6584 12.964C7.18876 12.394 7.83252 11.9412 8.54829 11.6348C9.26407 11.3285 10.036 11.1752 10.8146 11.185C11.5931 11.1948 12.361 11.3673 13.0688 11.6916Z" fill="#4B5D63"/>
<path d="M7.87393 27.2773L10.7876 29.1805V34.4525H1.33203V31.0858C1.33202 30.5857 1.43052 30.0904 1.62191 29.6284C1.8133 29.1663 2.09383 28.7464 2.44748 28.3928C2.80113 28.0391 3.22097 27.7586 3.68304 27.5672C4.14511 27.3758 4.64035 27.2773 5.14048 27.2773H7.87393Z" fill="#00EFD1"/>
<path d="M16.5924 26.7378H14.3736V25.5635C14.6321 25.3876 14.8701 25.1834 15.0831 24.9546C16.2388 23.7855 16.8904 22.2101 16.8981 20.5662V18.5208C17.1831 18.6075 17.4794 18.6512 17.7773 18.6505C18.438 18.6516 19.0817 18.4416 19.6145 18.051C20.1474 17.6605 20.5414 17.1098 20.7392 16.4795C20.937 15.8491 20.9281 15.1721 20.7139 14.5471C20.4997 13.9222 20.0914 13.382 19.5485 13.0055C19.2119 12.7727 18.8319 12.6099 18.4311 12.5268C18.0303 12.4437 17.6169 12.4419 17.2154 12.5217C16.6766 12.6218 16.1723 12.8578 15.7502 13.2073C15.126 12.331 14.284 11.6327 13.3073 11.1813C12.1681 10.6594 10.8966 10.4983 9.66321 10.7197C8.42984 10.9411 7.29368 11.5343 6.4071 12.4198C5.74797 13.0797 5.24712 13.8805 4.94228 14.762H4.95069C4.73258 15.4054 4.62297 16.0805 4.62637 16.7598V20.5662C4.62637 22.6121 5.60811 24.5599 7.29109 25.7254V26.7378H5.13897C4.56654 26.736 3.99935 26.847 3.46984 27.0645C2.94034 27.282 2.45891 27.6018 2.05309 28.0055C1.64728 28.4092 1.32503 28.889 1.10478 29.4174C0.884538 29.9458 0.770616 30.5124 0.769531 31.0848V34.4515C0.769531 34.6003 0.828636 34.743 0.933843 34.8482C1.03905 34.9534 1.18174 35.0125 1.33053 35.0125H20.4001C20.5493 35.0126 20.6926 34.9537 20.7985 34.8486C20.9044 34.7435 20.9644 34.6007 20.9653 34.4515V31.0848C20.9638 30.5122 20.8495 29.9455 20.6289 29.4171C20.4083 28.8887 20.0857 28.4089 19.6796 28.0052C19.2735 27.6015 18.7918 27.2818 18.2621 27.0643C17.7324 26.8469 17.165 26.7359 16.5924 26.7378ZM10.7677 28.5142L8.41308 26.9727V26.3432C9.14468 26.6479 9.9287 26.807 10.7212 26.8114C11.5965 26.8138 12.4611 26.62 13.2517 26.2443V26.9647L10.7677 28.5142ZM19.4059 16.682C19.1336 17.0711 18.7305 17.3494 18.2702 17.466C17.8098 17.5827 17.3229 17.53 16.8981 17.3176V16.8204L19.6137 14.7969C19.7382 15.1037 19.7843 15.4366 19.7481 15.7657C19.7118 16.0948 19.5942 16.4097 19.4059 16.682ZM18.8993 13.9216L16.7574 15.5154C16.6644 15.0618 16.5194 14.6204 16.3253 14.2C17.0053 13.5201 18.1143 13.3803 18.8993 13.9219V13.9216ZM15.1652 14.3863C15.5284 15.0583 15.731 15.8052 15.7571 16.5685C15.7599 16.6258 15.7612 16.6861 15.7613 16.7521C15.1746 16.2335 14.7394 15.5655 14.502 14.8192C14.4749 14.7108 14.4161 14.613 14.3331 14.5383C14.2501 14.4636 14.1466 14.4153 14.036 14.3998C13.9254 14.3842 13.8126 14.402 13.7122 14.4509C13.6118 14.4998 13.5282 14.5776 13.4723 14.6743C12.5081 16.3401 10.9049 17.2926 8.69063 17.5051C7.70795 17.593 6.71784 17.5448 5.74835 17.3618V16.7598C5.74555 16.371 5.78791 15.9832 5.87458 15.6042C6.31904 15.6805 6.76922 15.7187 7.22019 15.7183C8.93123 15.7183 11.4435 15.171 13.2747 12.4284C14.072 12.896 14.7259 13.5733 15.1652 14.3866V14.3863ZM7.20028 13.2137C7.84583 12.5684 8.65519 12.1115 9.54117 11.8922C10.4272 11.6729 11.3562 11.6994 12.2282 11.969C10.2653 14.7438 7.48498 14.7115 6.2536 14.5331C6.49592 14.0451 6.81561 13.5995 7.20028 13.2137ZM5.74835 20.5662V18.5022C6.40992 18.6143 7.07969 18.6709 7.75068 18.6714C8.08377 18.6714 8.43089 18.657 8.79364 18.6223C10.9455 18.4157 12.6754 17.5551 13.8476 16.1155C14.2976 16.949 14.9637 17.6459 15.7761 18.133V20.5663C15.7721 21.4035 15.5657 22.2273 15.1743 22.9674C14.7829 23.7075 14.2183 24.3419 13.5285 24.8164C12.7482 25.3616 11.8247 25.6648 10.8731 25.6883C9.92158 25.7117 8.9842 25.4544 8.17802 24.9483C7.43626 24.4821 6.8245 23.8359 6.39968 23.0697C5.97487 22.3035 5.7508 21.4423 5.74835 20.5662ZM1.89152 31.0848C1.89243 30.6597 1.97721 30.2389 2.14101 29.8466C2.30481 29.4542 2.5444 29.0981 2.84607 28.7985C3.14773 28.4989 3.50555 28.2618 3.899 28.1007C4.29246 27.9396 4.71383 27.8578 5.13897 27.8598H7.70552L10.2363 29.4832V33.8905H1.89152V31.0848ZM19.8433 33.8905H11.3583V29.4912L14.0039 27.8598H16.5924C17.0177 27.8577 17.4392 27.9396 17.8329 28.1006C18.2266 28.2616 18.5846 28.4987 18.8866 28.7982C19.1885 29.0977 19.4285 29.4539 19.5926 29.8463C19.7568 30.2386 19.842 30.6595 19.8433 31.0848V33.8905Z" fill="#083863"/>
<path d="M9.88063 20.5152C9.88063 20.3664 9.82153 20.2237 9.71632 20.1185C9.61111 20.0133 9.46842 19.9542 9.31964 19.9542C9.17085 19.9542 9.02816 20.0133 8.92295 20.1185C8.81775 20.2237 8.75864 20.3664 8.75864 20.5152C8.75851 20.6187 8.71732 20.718 8.6441 20.7912C8.57087 20.8645 8.4716 20.9056 8.36805 20.9058C8.26455 20.9055 8.16539 20.8642 8.09221 20.791C8.01902 20.7178 7.97777 20.6187 7.97746 20.5152C7.97746 20.3664 7.91835 20.2237 7.81315 20.1185C7.70794 20.0133 7.56525 19.9542 7.41646 19.9542C7.26768 19.9542 7.12499 20.0133 7.01978 20.1185C6.91457 20.2237 6.85547 20.3664 6.85547 20.5152C6.85584 20.9162 7.01532 21.3007 7.2989 21.5843C7.58249 21.8679 7.967 22.0274 8.36805 22.0278C8.76904 22.0272 9.15345 21.8677 9.43699 21.5841C9.72053 21.3006 9.88007 20.9162 9.88063 20.5152ZM13.126 22.0278C13.527 22.0272 13.9114 21.8677 14.1949 21.5841C14.4785 21.3006 14.638 20.9162 14.6386 20.5152C14.6386 20.3664 14.5795 20.2237 14.4743 20.1185C14.369 20.0133 14.2264 19.9542 14.0776 19.9542C13.9288 19.9542 13.7861 20.0133 13.6809 20.1185C13.5757 20.2237 13.5166 20.3664 13.5166 20.5152C13.5164 20.6187 13.4753 20.718 13.402 20.7912C13.3288 20.8645 13.2295 20.9056 13.126 20.9058C13.0225 20.9054 12.9234 20.8642 12.8502 20.791C12.777 20.7178 12.7357 20.6187 12.7354 20.5152C12.7354 20.3664 12.6763 20.2237 12.5711 20.1185C12.4659 20.0133 12.3232 19.9542 12.1744 19.9542C12.0256 19.9542 11.8829 20.0133 11.7777 20.1185C11.6725 20.2237 11.6134 20.3664 11.6134 20.5152C11.6138 20.9162 11.7733 21.3007 12.0568 21.5843C12.3404 21.8679 12.7249 22.0274 13.126 22.0278ZM31.1339 10.227C31.186 10.2791 31.2478 10.3205 31.3159 10.3487C31.384 10.3769 31.4569 10.3914 31.5306 10.3914C31.6043 10.3914 31.6772 10.3769 31.7453 10.3487C31.8133 10.3205 31.8752 10.2791 31.9273 10.227L32.3961 9.7584L32.7981 10.1604C32.9033 10.2656 33.046 10.3248 33.1948 10.3248C33.3436 10.3248 33.4863 10.2657 33.5915 10.1605C33.6967 10.0553 33.7558 9.91261 33.7558 9.76382C33.7558 9.61503 33.6967 9.47233 33.5915 9.36711L33.1895 8.96509L33.5915 8.56299C33.6437 8.5109 33.685 8.44904 33.7132 8.38097C33.7414 8.31289 33.7559 8.23993 33.7559 8.16625C33.7559 8.09256 33.7414 8.0196 33.7132 7.95152C33.685 7.88344 33.6437 7.82158 33.5916 7.76947C33.5395 7.71736 33.4777 7.67602 33.4096 7.64782C33.3415 7.61961 33.2686 7.6051 33.1949 7.60509C33.1212 7.60508 33.0482 7.61959 32.9801 7.64778C32.9121 7.67597 32.8502 7.7173 32.7981 7.7694L32.3961 8.17163L31.9275 7.70299C31.8754 7.65088 31.8136 7.60954 31.7455 7.58134C31.6774 7.55313 31.6045 7.53861 31.5308 7.5386C31.4571 7.53859 31.3841 7.55309 31.316 7.58128C31.248 7.60947 31.1861 7.65079 31.134 7.70289C31.0819 7.75498 31.0406 7.81683 31.0124 7.8849C30.9841 7.95297 30.9696 8.02593 30.9696 8.09961C30.9696 8.17329 30.9841 8.24625 31.0123 8.31433C31.0405 8.38241 31.0818 8.44427 31.1339 8.49638L31.6025 8.96502L31.1339 9.43359C31.0818 9.48568 31.0405 9.54753 31.0123 9.6156C30.9841 9.68367 30.9695 9.75663 30.9695 9.83032C30.9695 9.904 30.9841 9.97696 31.0123 10.045C31.0405 10.1131 31.0818 10.1749 31.1339 10.227ZM33.2329 12.0891L32.0083 12.992L31.6671 12.5385C31.5776 12.4196 31.4446 12.3411 31.2973 12.3203C31.1499 12.2994 31.0004 12.338 30.8815 12.4274C30.7626 12.5169 30.6841 12.6499 30.6633 12.7972C30.6424 12.9445 30.681 13.0941 30.7704 13.213L31.4457 14.1106C31.5346 14.2287 31.6666 14.307 31.8129 14.3284C31.9592 14.3498 32.108 14.3126 32.227 14.2248L33.8988 12.992C33.958 12.9483 34.0081 12.8933 34.0462 12.8302C34.0842 12.7671 34.1095 12.6971 34.1205 12.6243C34.1315 12.5514 34.128 12.4771 34.1103 12.4056C34.0925 12.3341 34.0609 12.2667 34.0172 12.2075C33.9734 12.1482 33.9184 12.0981 33.8553 12.06C33.7922 12.022 33.7222 11.9968 33.6494 11.9858C33.5765 11.9748 33.5022 11.9782 33.4307 11.996C33.3592 12.0137 33.2919 12.0453 33.2326 12.0891H33.2329ZM31.4456 5.72647C31.5345 5.8447 31.6664 5.92307 31.8127 5.94451C31.9591 5.96596 32.108 5.92875 32.227 5.84098L33.8988 4.60827C33.958 4.56452 34.0081 4.50953 34.0462 4.44643C34.0842 4.38333 34.1095 4.31335 34.1205 4.2405C34.1315 4.16764 34.128 4.09333 34.1103 4.02182C34.0925 3.9503 34.0609 3.88297 34.0172 3.82368C33.9734 3.76439 33.9184 3.71429 33.8553 3.67626C33.7922 3.63822 33.7222 3.61298 33.6494 3.60199C33.5765 3.59099 33.5022 3.59445 33.4307 3.61218C33.3592 3.6299 33.2919 3.66153 33.2326 3.70528L32.0082 4.60813L31.6668 4.15393C31.6226 4.09504 31.5671 4.04546 31.5037 4.008C31.4402 3.97054 31.37 3.94594 31.2971 3.93561C31.2242 3.92528 31.1499 3.92942 31.0785 3.94779C31.0072 3.96616 30.9402 3.9984 30.8813 4.04268C30.8224 4.08695 30.7728 4.1424 30.7353 4.20584C30.6979 4.26928 30.6733 4.33947 30.663 4.41242C30.6526 4.48537 30.6568 4.55963 30.6751 4.63098C30.6935 4.70233 30.7257 4.76936 30.77 4.82825L31.4456 5.72647ZM23.9111 9.55757H29.1003C29.2491 9.55757 29.3918 9.49846 29.497 9.39326C29.6022 9.28805 29.6613 9.14536 29.6613 8.99657C29.6613 8.84779 29.6022 8.7051 29.497 8.59989C29.3918 8.49468 29.2491 8.43558 29.1003 8.43558H23.9111C23.7623 8.43558 23.6196 8.49468 23.5144 8.59989C23.4092 8.7051 23.3501 8.84779 23.3501 8.99657C23.3501 9.14536 23.4092 9.28805 23.5144 9.39326C23.6196 9.49846 23.7623 9.55757 23.9111 9.55757ZM23.9111 5.35011H29.1003C29.2491 5.35011 29.3918 5.29101 29.497 5.1858C29.6022 5.08059 29.6613 4.9379 29.6613 4.78912C29.6613 4.64033 29.6022 4.49764 29.497 4.39243C29.3918 4.28723 29.2491 4.22812 29.1003 4.22812H23.9111C23.7623 4.22812 23.6196 4.28723 23.5144 4.39243C23.4092 4.49764 23.3501 4.64033 23.3501 4.78912C23.3501 4.9379 23.4092 5.08059 23.5144 5.1858C23.6196 5.29101 23.7623 5.35011 23.9111 5.35011ZM23.9111 13.765H29.1003C29.2491 13.765 29.3918 13.7059 29.497 13.6007C29.6022 13.4955 29.6613 13.3528 29.6613 13.204C29.6613 13.0552 29.6022 12.9126 29.497 12.8073C29.3918 12.7021 29.2491 12.643 29.1003 12.643H23.9111C23.7623 12.643 23.6196 12.7021 23.5144 12.8073C23.4092 12.9126 23.3501 13.0552 23.3501 13.204C23.3501 13.3528 23.4092 13.4955 23.5144 13.6007C23.6196 13.7059 23.7623 13.765 23.9111 13.765Z" fill="#083863"/>
<path d="M35.9728 1.07271C35.9728 0.923928 35.9137 0.781237 35.8084 0.67603C35.7032 0.570823 35.5605 0.511719 35.4118 0.511719H22.018C21.8692 0.511719 21.7265 0.570823 21.6213 0.67603C21.5161 0.781237 21.457 0.923928 21.457 1.07271V16.8507C21.457 16.9995 21.5161 17.1422 21.6213 17.2474C21.7265 17.3526 21.8692 17.4117 22.018 17.4117H35.4118C35.5605 17.4117 35.7032 17.3526 35.8084 17.2474C35.9137 17.1422 35.9728 16.9995 35.9728 16.8507V1.07271ZM34.8508 16.2897H22.579V1.63371H34.8508V16.2897Z" fill="#083863"/>
</svg>
