<svg width="38" height="38" viewBox="0 0 38 38" fill="none" xmlns="http://www.w3.org/2000/svg">
<g clip-path="url(#clip0_521_81)">
<path fill-rule="evenodd" clip-rule="evenodd" d="M14.2212 16.7374C12.6375 17.144 11.4605 17.3367 11.3107 17.3795C10.8613 17.5293 9.62005 17.0798 8.46443 16.3522C7.52281 15.7744 6.64539 15.004 6.23878 14.2336C6.08897 13.9554 5.98197 13.8056 5.89637 13.7628C5.87497 13.7842 5.87497 13.8056 5.85357 13.8484C5.76797 14.041 5.74657 14.4048 5.81077 14.7258C5.96057 15.646 6.75239 16.2238 7.48 16.7374C8.05782 17.1654 8.59283 17.5507 8.82824 18.0643L9.08504 18.6207C9.79126 20.1401 10.7971 22.3016 10.7115 23.7568C10.6901 24.2276 10.6687 24.8696 10.7115 25.5758C10.7543 26.1109 10.8185 26.6887 10.9469 27.2665C11.3963 29.3209 12.7659 29.6847 13.8145 29.4707C14.1784 29.3851 14.4994 29.2353 14.7348 29.0641C14.9274 28.9357 15.0558 28.7859 15.0558 28.6575C15.0558 28.4863 14.7348 28.3365 13.943 28.3365C13.6005 28.3365 13.3437 28.1439 13.1297 27.8657C12.9585 27.6303 12.8087 27.3093 12.7231 27.0311V27.0097L12.7017 26.9669C12.5305 26.5175 12.4877 26.3677 12.5305 26.1965C12.5733 26.068 12.6589 26.0252 12.7659 25.9396C12.8515 25.8968 12.9799 25.8112 13.1511 25.6614C13.5363 25.2762 13.8359 24.7198 14.0714 24.1848C14.3068 23.6498 14.478 23.0934 14.585 22.7082C14.9702 21.2101 16.6394 20.9319 18.0946 21.0389C18.2444 21.0603 18.4157 21.0603 18.5655 21.0817L14.2212 16.7374ZM26.719 18.2569C27.2112 17.4223 27.4681 16.6518 27.5965 15.9456C26.3124 15.646 25.2638 15.1966 24.365 14.683C23.509 14.1908 22.8242 13.6344 22.2463 13.0352C22.0537 13.3348 21.9253 13.506 21.9253 13.506C21.9253 13.5274 21.9039 13.5488 21.8825 13.5702C21.2619 13.9982 20.5771 14.3834 19.8495 14.7472C19.2931 15.004 18.7367 15.2608 18.1588 15.4748L24.1296 21.4455C24.1296 21.4241 24.151 21.4027 24.151 21.3813V21.3599C24.1724 21.3385 24.1938 21.3171 24.1938 21.2957C25.3708 20.1829 26.184 19.1771 26.719 18.2569Z" fill="#00AFEF"/>
<path fill-rule="evenodd" clip-rule="evenodd" d="M31.8115 12.4782C31.6831 12.307 31.4049 12.1358 30.9127 12.0288C29.8213 11.7506 27.7882 9.69614 27.6812 9.58914C27.6384 9.54634 27.617 9.50354 27.617 9.43934C27.7026 7.7701 27.4886 7.8985 27.4672 7.9413L26.5042 9.52494C26.4828 9.58914 26.4186 9.63194 26.3544 9.63194C24.8136 9.82455 23.2941 11.6008 22.5023 12.6922C23.0587 13.27 23.7435 13.8264 24.5781 14.3186C25.4342 14.8109 26.44 15.2389 27.6598 15.5385C27.7882 15.0035 28.1734 14.6611 28.6014 14.4257C29.0936 14.1688 29.6287 14.0618 30.0353 13.9976C30.5917 13.9334 31.2337 13.591 31.6189 13.2058C31.7473 13.0774 31.8329 12.9276 31.8757 12.7992C31.8971 12.6922 31.8757 12.5852 31.8115 12.4782ZM20.5977 23.1142C20.6619 23.3497 20.7261 23.6065 20.7903 23.8847C21.2825 25.5539 22.1385 27.7582 22.4381 28.4216C22.8233 29.3204 23.5081 29.6414 24.1073 29.62C24.4711 29.62 24.8136 29.4916 25.0276 29.3204C25.2202 29.192 25.3058 28.9994 25.2416 28.8496C25.156 28.6356 24.835 28.4216 24.1715 28.2504C24.0859 28.229 24.0217 28.1648 24.0003 28.0792C23.9361 27.6083 23.8933 27.1589 23.8505 26.7523C23.8291 26.6025 23.8291 26.4741 23.8077 26.3457L20.5977 23.1142Z" fill="#00AFEF"/>
<path fill-rule="evenodd" clip-rule="evenodd" d="M18.821 3.89731C14.7335 3.89731 11.0098 5.54514 8.31338 8.2416C5.61692 10.9381 3.96908 14.6617 3.96908 18.7492C3.96908 22.8581 5.61692 26.5818 8.31338 29.2569C11.0098 31.9533 14.7335 33.6226 18.821 33.6226C22.9299 33.6226 26.6536 31.9533 29.3287 29.2569C32.0251 26.5818 33.6944 22.8581 33.6944 18.7492C33.6944 14.6617 32.0251 10.9381 29.3287 8.2416C26.6536 5.54514 22.9299 3.89731 18.821 3.89731ZM5.91653 5.84475C9.2122 2.54908 13.7919 0.494629 18.821 0.494629C23.8715 0.494629 28.4298 2.54908 31.7469 5.84475C35.0426 9.14042 37.097 13.7201 37.097 18.7492C37.097 23.7998 35.0426 28.3581 31.7469 31.6751C28.4298 34.9708 23.8715 37.0252 18.821 37.0252C13.7919 37.0252 9.2122 34.9708 5.91653 31.6751C2.62085 28.3581 0.566406 23.7998 0.566406 18.7492C0.566406 13.7201 2.62085 9.14042 5.91653 5.84475Z" fill="#474748"/>
<path d="M6.13924 8.06828L8.13672 6.0708L31.4465 29.3806L29.449 31.378L6.13924 8.06828Z" fill="#474748"/>
</g>
<defs>
<clipPath id="clip0_521_81">
<rect width="36.5306" height="36.5306" fill="white" transform="translate(0.566406 0.494629)"/>
</clipPath>
</defs>
</svg>
