<svg width="39" height="39" viewBox="0 0 39 39" fill="none" xmlns="http://www.w3.org/2000/svg">
<path d="M31.6791 9.19711C31.6303 9.13801 31.5697 9.08976 31.5011 9.05545C31.4326 9.02114 31.3577 9.00154 31.2811 8.99788C31.2046 8.99423 31.1281 9.00662 31.0566 9.03425C30.9851 9.06188 30.9202 9.10414 30.866 9.15833L21.8787 18.1456C21.8762 18.1481 21.8736 18.1507 21.8711 18.1533L18.2122 21.8121C18.2096 21.8147 18.207 21.8172 18.2045 21.8198L9.34339 30.681C9.2892 30.7351 9.24694 30.8001 9.21931 30.8715C9.19168 30.943 9.17929 31.0195 9.18295 31.0961C9.1866 31.1726 9.2062 31.2475 9.24051 31.3161C9.27482 31.3846 9.32307 31.4452 9.38217 31.494C12.2169 33.8324 15.7785 35.1088 19.4532 35.1034C19.6916 35.1034 19.9307 35.0981 20.1704 35.0874C23.1085 34.9534 25.9512 34.004 28.3803 32.3456C30.8093 30.6873 32.7286 28.3853 33.9233 25.6978C35.118 23.0102 35.5408 20.0431 35.1444 17.1287C34.7481 14.2144 33.5481 11.468 31.6791 9.19711ZM22.4918 19.0881H25.3895V21.6547H19.9252L22.4918 19.0881ZM34.1736 19.9362C34.0509 22.6186 33.1978 25.2165 31.7065 27.4495C30.2152 29.6825 28.1424 31.4658 25.7117 32.6068C23.281 33.7478 20.5848 34.2033 17.9142 33.924C15.2436 33.6447 12.7 32.6412 10.5579 31.022L18.8253 22.7547H30.7165C31.0567 22.7543 31.3829 22.619 31.6234 22.3784C31.864 22.1378 31.9994 21.8116 31.9997 21.4714V19.2715C31.9994 18.9312 31.864 18.605 31.6234 18.3645C31.3829 18.1239 31.0567 17.9886 30.7165 17.9882H23.5918L31.2071 10.3729C33.2837 13.1157 34.3334 16.4996 34.1736 19.9362ZM26.4894 21.6547V19.0881H30.7165C30.7651 19.0882 30.8117 19.1075 30.846 19.1419C30.8804 19.1763 30.8997 19.2229 30.8998 19.2715V21.4714C30.8997 21.52 30.8804 21.5666 30.846 21.601C30.8117 21.6353 30.7651 21.6547 30.7165 21.6547H26.4894ZM7.46379 17.182C7.54672 17.182 7.62856 17.1631 7.70315 17.1269C9.08813 16.456 9.80919 15.693 9.90762 14.7942C9.96613 14.2598 9.77417 13.8563 9.61996 13.5321C9.49689 13.2734 9.39971 13.0691 9.41099 12.811C9.44007 12.1479 10.1837 11.5446 10.8023 11.1552C10.9257 11.0774 11.0131 10.9539 11.0453 10.8117C11.0776 10.6696 11.0521 10.5204 10.9745 10.397C10.8968 10.2736 10.7733 10.1861 10.6312 10.1537C10.4891 10.1213 10.3399 10.1467 10.2164 10.2242C8.99288 10.9944 8.35217 11.8485 8.3121 12.7629C8.28879 13.2944 8.47613 13.6882 8.62666 14.0046C8.76208 14.2893 8.83759 14.4608 8.81418 14.6745C8.74804 15.2785 7.91272 15.8031 7.22364 16.1369C7.11158 16.1912 7.02125 16.2819 6.96744 16.3942C6.91363 16.5065 6.89952 16.6338 6.9274 16.7551C6.95529 16.8765 7.02353 16.9848 7.12097 17.0624C7.2184 17.1399 7.33926 17.1821 7.46379 17.182ZM11.5066 15.0586C11.3851 15.5725 10.9661 16.0431 10.2612 16.4574C10.1989 16.494 10.1443 16.5425 10.1008 16.6001C10.0572 16.6577 10.0254 16.7234 10.0072 16.7933C9.98905 16.8633 9.98482 16.9361 9.99479 17.0077C10.0048 17.0792 10.0287 17.1481 10.0654 17.2104C10.102 17.2727 10.1505 17.3272 10.2082 17.3707C10.2659 17.4142 10.3315 17.446 10.4015 17.4641C10.4714 17.4822 10.5443 17.4864 10.6158 17.4764C10.6874 17.4664 10.7563 17.4423 10.8185 17.4057C11.7922 16.8334 12.3839 16.1289 12.577 15.3117C12.716 14.724 12.6073 14.2603 12.5113 13.8512C12.4331 13.5175 12.3655 13.2294 12.4382 12.885C12.5532 12.3403 12.988 11.8252 13.7307 11.3538C13.8535 11.2755 13.9402 11.1516 13.9718 11.0095C14.0034 10.8673 13.9773 10.7184 13.8993 10.5954C13.8212 10.4725 13.6976 10.3855 13.5555 10.3535C13.4134 10.3216 13.2645 10.3473 13.1413 10.4251C12.1391 11.0612 11.5404 11.8124 11.362 12.6579C11.2387 13.2419 11.3458 13.699 11.4404 14.1023C11.5217 14.4491 11.5859 14.723 11.5066 15.0586ZM14.8421 22.5896L18.5009 18.9307C18.5035 18.9282 18.5061 18.9256 18.5086 18.923L29.5697 7.86197C29.6238 7.80778 29.6661 7.74286 29.6937 7.67137C29.7214 7.59989 29.7338 7.52342 29.7301 7.44687C29.7264 7.37032 29.7068 7.29538 29.6725 7.22685C29.6382 7.15832 29.59 7.09772 29.5309 7.04892C26.4917 4.5475 22.6301 3.26723 18.6985 3.45757C14.7669 3.64792 11.047 5.29526 8.26364 8.07858C5.48032 10.8619 3.83298 14.5818 3.64263 18.5134C3.45229 22.445 4.73256 26.3066 7.23399 29.3458C7.28278 29.4049 7.34338 29.4532 7.41191 29.4875C7.48044 29.5218 7.55538 29.5414 7.63193 29.545C7.64071 29.5455 7.64946 29.5457 7.65818 29.5457C7.80403 29.5457 7.9439 29.4877 8.04703 29.3846L14.8344 22.5972C14.837 22.5947 14.8395 22.5921 14.8421 22.5896ZM7.70598 28.1701C6.08293 26.0291 5.07631 23.485 4.79504 20.8131C4.51378 18.1412 4.96858 15.4432 6.11024 13.0112C7.25189 10.5791 9.03692 8.50564 11.2722 7.01505C13.5074 5.52446 16.1077 4.67354 18.7917 4.55439C19.0149 4.5444 19.2375 4.53942 19.4595 4.53946C22.6708 4.53494 25.7952 5.58212 28.3551 7.52092L17.8879 17.9882H8.2193C7.87907 17.9886 7.55288 18.1239 7.3123 18.3645C7.07172 18.605 6.9364 18.9312 6.93601 19.2715V21.4714C6.9364 21.8116 7.07172 22.1378 7.3123 22.3784C7.55288 22.619 7.87907 22.7543 8.2193 22.7547H13.1214L7.70598 28.1701ZM9.38471 19.0881V21.6547H8.2193C8.17069 21.6547 8.1241 21.6353 8.08973 21.601C8.05536 21.5666 8.03603 21.52 8.03597 21.4714V19.2715C8.03603 19.2229 8.05536 19.1763 8.08973 19.1419C8.1241 19.1075 8.17069 19.0882 8.2193 19.0881H9.38471ZM10.4847 21.6547V19.0881H16.7879L14.2213 21.6547H10.4847ZM32.7308 5.9972C30.9878 4.25309 28.9183 2.86945 26.6404 1.92531C24.3626 0.981168 21.9211 0.495018 19.4553 0.494629C16.9895 0.49424 14.5479 0.97962 12.2697 1.92305C9.99159 2.86647 7.92162 4.24946 6.17807 5.99301C4.43452 7.73656 3.05153 9.80653 2.1081 12.0847C1.16468 14.3628 0.679299 16.8045 0.679688 19.2702C0.680076 21.736 1.16623 24.1775 2.11037 26.4554C3.05451 28.7332 4.43815 30.8027 6.18225 32.5457C9.70281 36.0663 14.4777 38.0441 19.4565 38.0441C21.9218 38.0441 24.3629 37.5585 26.6405 36.6151C28.9181 35.6717 30.9876 34.2889 32.7308 32.5457C34.474 30.8025 35.8568 28.733 36.8002 26.4554C37.7436 24.1778 38.2292 21.7367 38.2292 19.2715C38.2292 16.8062 37.7436 14.3651 36.8002 12.0875C35.8568 9.80988 34.474 7.7404 32.7308 5.9972ZM31.953 31.768C30.312 33.4095 28.3638 34.7117 26.2195 35.6002C24.0753 36.4887 21.777 36.9461 19.4559 36.9463C17.1348 36.9465 14.8365 36.4894 12.6921 35.6013C10.5476 34.7132 8.59917 33.4113 6.95793 31.7701C5.31669 30.1288 4.01483 28.1803 3.12668 26.0359C2.23854 23.8915 1.78152 21.5931 1.78171 19.2721C1.78191 16.951 2.23932 14.6527 3.12782 12.5085C4.01633 10.3642 5.31852 8.41594 6.96003 6.77497C8.601 5.13346 10.5492 3.83127 12.6935 2.94276C14.8378 2.05426 17.1361 1.59685 19.4571 1.59665C21.7782 1.59646 24.0766 2.05348 26.221 2.94162C28.3654 3.82977 30.3139 5.13163 31.9551 6.77287C33.5964 8.41411 34.8982 10.3626 35.7864 12.507C36.6745 14.6514 37.1315 16.9498 37.1313 19.2708C37.1311 21.5919 36.6737 23.8902 35.7852 26.0345C34.8967 28.1787 33.5945 30.127 31.953 31.768Z" fill="#272A33"/>
</svg>
